<?xml version="1.0" encoding="UTF-8" standalone="no"?>
<!-- Created with Inkscape (http://www.inkscape.org/) -->

<svg
   xmlns:dc="http://purl.org/dc/elements/1.1/"
   xmlns:cc="http://creativecommons.org/ns#"
   xmlns:rdf="http://www.w3.org/1999/02/22-rdf-syntax-ns#"
   xmlns:svg="http://www.w3.org/2000/svg"
   xmlns="http://www.w3.org/2000/svg"
   xmlns:sodipodi="http://sodipodi.sourceforge.net/DTD/sodipodi-0.dtd"
   xmlns:inkscape="http://www.inkscape.org/namespaces/inkscape"
   width="650"
   height="450"
   id="svg2"
   version="1.1"
   inkscape:version="0.47 r22583"
   sodipodi:docname="signet.svg">
  <sodipodi:namedview
     id="base"
     pagecolor="#eeeeee"
     bordercolor="#666666"
     borderopacity="1.0"
     inkscape:pageopacity="1"
     inkscape:pageshadow="2"
     inkscape:zoom="1"
     inkscape:cx="325"
     inkscape:cy="225"
     inkscape:document-units="px"
     inkscape:current-layer="layer1"
     showgrid="false"
     inkscape:window-width="1836"
     inkscape:window-height="1181"
     inkscape:window-x="-4"
     inkscape:window-y="-4"
     inkscape:window-maximized="1"
     width="650px" />
  <metadata
     id="metadata7">
    <rdf:RDF>
      <cc:Work
         rdf:about="">
        <dc:format>image/svg+xml</dc:format>
        <dc:type
           rdf:resource="http://purl.org/dc/dcmitype/StillImage" />
        <dc:title></dc:title>
      </cc:Work>
    </rdf:RDF>
  </metadata>
  <g
     inkscape:label="Layer 1"
     inkscape:groupmode="layer"
     id="layer1"
     transform="translate(0,-602.36218)">
    <path
       style="opacity:0.2;fill:#000000;fill-opacity:1;stroke:none;stroke-opacity:1;stroke-width:10;stroke-miterlimit:4;stroke-dasharray:none;stroke-linejoin:miter"
       d="M 298.52206,721.48165 175,845.00371 l 70.5974,0 52.92466,-52.92465 52.92467,52.92465 0.0312,0 35.2831,-35.2831 -88.23897,-88.23896 z"
       id="rect5281" />
    <path
       style="opacity:0.2;fill:#000000;fill-opacity:1;stroke:none;stroke-opacity:1;stroke-width:10;stroke-miterlimit:4;stroke-dasharray:none;stroke-linejoin:miter"
       d="m 298.52208,809.72061 -35.2831,35.2831 88.22336,88.23898 123.53767,-123.52208 -70.59741,0 -52.94026,52.94025 -52.94026,-52.94025 z"
       id="rect5281-1" />
    <path
       style="opacity:0.2;fill:#000000;fill-opacity:1;stroke:none;stroke-opacity:1;stroke-width:10;stroke-miterlimit:4;stroke-dasharray:none;stroke-linejoin:miter"
       d="M -26.477935,946.48165 -150,1070.0037 l 70.597405,0 52.92466,-52.9246 52.92466,52.9246 0.0312,0 35.28311,-35.2831 -88.23897,-88.23895 z"
       id="rect5281-17" />
    <path
       style="opacity:0.2;fill:#000000;fill-opacity:1;stroke:none;stroke-opacity:1;stroke-width:10;stroke-miterlimit:4;stroke-dasharray:none;stroke-linejoin:miter"
       d="m -26.477935,1034.7206 -35.2831,35.2831 88.22336,88.239 L 150,1034.7206 l -70.597415,0 -52.94026,52.9403 -52.94026,-52.9403 z"
       id="rect5281-1-4" />
    <path
       style="opacity:0.2;fill:#000000;fill-opacity:1;stroke:none;stroke-opacity:1;stroke-width:10;stroke-miterlimit:4;stroke-dasharray:none;stroke-linejoin:miter"
       d="M 623.52206,496.48165 500,620.00371 l 70.5974,0 52.92466,-52.92465 52.92467,52.92465 0.0312,0 35.2831,-35.2831 -88.23897,-88.23896 z"
       id="rect5281-0" />
    <path
       style="opacity:0.2;fill:#000000;fill-opacity:1;stroke:none;stroke-opacity:1;stroke-width:10;stroke-miterlimit:4;stroke-dasharray:none;stroke-linejoin:miter"
       d="m 623.52207,584.72061 -35.2831,35.2831 88.22336,88.23898 L 800,584.72061 l -70.5974,0 -52.94026,52.94025 -52.94026,-52.94025 z"
       id="rect5281-1-9" />
    <path
       style="opacity:0.2;fill:#000000;fill-opacity:1;stroke:none;stroke-opacity:1;stroke-width:10;stroke-miterlimit:4;stroke-dasharray:none;stroke-linejoin:miter"
       d="M -26.477935,496.48165 -150,620.00371 l 70.597405,0 52.92466,-52.92465 52.92466,52.92465 0.0312,0 35.28311,-35.2831 -88.23897,-88.23896 z"
       id="rect5281-8" />
    <path
       style="opacity:0.2;fill:#000000;fill-opacity:1;stroke:none;stroke-opacity:1;stroke-width:10;stroke-miterlimit:4;stroke-dasharray:none;stroke-linejoin:miter"
       d="M -26.477935,584.7206 -61.761037,620.0037 26.462325,708.24268 150,584.7206 l -70.597415,0 -52.94026,52.94025 -52.94026,-52.94025 z"
       id="rect5281-1-8" />
    <path
       style="opacity:0.2;fill:#000000;fill-opacity:1;stroke:none;stroke-opacity:1;stroke-width:10;stroke-miterlimit:4;stroke-dasharray:none;stroke-linejoin:miter"
       d="M 623.52206,946.48165 500,1070.0037 l 70.5974,0 52.92466,-52.9246 52.92467,52.9246 0.0312,0 35.2831,-35.2831 -88.23897,-88.23895 z"
       id="rect5281-4" />
    <path
       style="opacity:0.2;fill:#000000;fill-opacity:1;stroke:none;stroke-opacity:1;stroke-width:10;stroke-miterlimit:4;stroke-dasharray:none;stroke-linejoin:miter"
       d="m 623.52206,1034.7206 -35.2831,35.2831 88.22336,88.239 L 800,1034.7206 l -70.59741,0 -52.94026,52.9403 -52.94026,-52.9403 z"
       id="rect5281-1-5" />
  </g>
</svg>
